{
	"asset":{
		"generator":"Khronos glTF Blender I/O v4.3.47",
		"version":"2.0"
	},
	"extensionsUsed":[
		"KHR_materials_specular"
	],
	"scene":0,
	"scenes":[
		{
			"name":"Scene",
			"nodes":[
				0,
				1
			]
		}
	],
	"nodes":[
		{
			"mesh":0,
			"name":"Curve.001",
			"rotation":[
				0,
				-0.7071067690849304,
				-0.7071068286895752,
				1.461109633282831e-07
			],
			"scale":[
				6.81387996673584,
				6.813878536224365,
				6.813878536224365
			]
		},
		{
			"name":"Curve.003",
			"rotation":[
				0,
				-1,
				0,
				1.6292068494294654e-07
			],
			"translation":[
				0.08797046542167664,
				0,
				-0.04100973531603813
			]
		}
	],
	"materials":[
		{
			"doubleSided":true,
			"extensions":{
				"KHR_materials_specular":{
					"specularTexture":{
						"index":0
					}
				}
			},
			"name":"Gold metal",
			"normalTexture":{
				"index":1
			},
			"pbrMetallicRoughness":{
				"baseColorTexture":{
					"index":2
				},
				"metallicRoughnessTexture":{
					"index":3
				}
			}
		}
	],
	"meshes":[
		{
			"name":"Mesh.001",
			"primitives":[
				{
					"attributes":{
						"POSITION":0,
						"NORMAL":1,
						"TEXCOORD_0":2
					},
					"indices":3,
					"material":0
				}
			]
		}
	],
	"textures":[
		{
			"sampler":0,
			"source":0
		},
		{
			"sampler":0,
			"source":1
		},
		{
			"sampler":0,
			"source":2
		},
		{
			"sampler":0,
			"source":3
		}
	],
	"images":[
		{
			"mimeType":"image/jpeg",
			"name":"gold_specular",
			"uri":"Texture/gold_specular.jpg"
		},
		{
			"mimeType":"image/jpeg",
			"name":"gold_normal_opengl",
			"uri":"Texture/gold_normal_opengl.jpg"
		},
		{
			"mimeType":"image/jpeg",
			"name":"gold_basecolor",
			"uri":"Texture/gold_basecolor.jpg"
		},
		{
			"mimeType":"image/png",
			"name":"gold_metallic-gold_glossiness",
			"uri":"Texture/gold_metallic-gold_glossiness.png"
		}
	],
	"accessors":[
		{
			"bufferView":0,
			"componentType":5126,
			"count":6030,
			"max":[
				0.0495309978723526,
				0.005621904972940683,
				0.14375412464141846
			],
			"min":[
				-0.04944637417793274,
				-1.862645149230957e-09,
				0
			],
			"type":"VEC3"
		},
		{
			"bufferView":1,
			"componentType":5126,
			"count":6030,
			"type":"VEC3"
		},
		{
			"bufferView":2,
			"componentType":5126,
			"count":6030,
			"type":"VEC2"
		},
		{
			"bufferView":3,
			"componentType":5123,
			"count":12096,
			"type":"SCALAR"
		}
	],
	"bufferViews":[
		{
			"buffer":0,
			"byteLength":72360,
			"byteOffset":0,
			"target":34962
		},
		{
			"buffer":0,
			"byteLength":72360,
			"byteOffset":72360,
			"target":34962
		},
		{
			"buffer":0,
			"byteLength":48240,
			"byteOffset":144720,
			"target":34962
		},
		{
			"buffer":0,
			"byteLength":24192,
			"byteOffset":192960,
			"target":34963
		}
	],
	"samplers":[
		{
			"magFilter":9729,
			"minFilter":9987
		}
	],
	"buffers":[
		{
			"byteLength":217152,
			"uri":"ajmal.logo.bin"
		}
	]
}
