{
	"asset":{
		"generator":"Khronos glTF Blender I/O v4.3.47",
		"version":"2.0"
	},
	"scene":0,
	"scenes":[
		{
			"name":"Scene",
			"nodes":[
				0,
				1,
				2,
				3,
				4,
				5,
				6,
				7
			]
		}
	],
	"nodes":[
		{
			"mesh":0,
			"name":"Circle.001",
			"scale":[
				0.3253353238105774,
				0.3253353238105774,
				0.3253353238105774
			],
			"translation":[
				1.5103378295898438,
				0,
				0
			]
		},
		{
			"mesh":1,
			"name":"Circle.002",
			"scale":[
				0.3253353238105774,
				0.3253353238105774,
				0.3253353238105774
			],
			"translation":[
				-1.500887155532837,
				0,
				0
			]
		},
		{
			"mesh":2,
			"name":"Circle.003",
			"scale":[
				0.3253353238105774,
				0.3253353238105774,
				0.3253353238105774
			],
			"translation":[
				0,
				0,
				-1.5256378650665283
			]
		},
		{
			"mesh":3,
			"name":"Circle.004",
			"scale":[
				0.3253353238105774,
				0.3253353238105774,
				0.3253353238105774
			],
			"translation":[
				0,
				0,
				1.5388301610946655
			]
		},
		{
			"mesh":4,
			"name":"Circle.005",
			"scale":[
				0.3253353238105774,
				0.3253353238105774,
				0.3253353238105774
			],
			"translation":[
				1,
				0,
				-1
			]
		},
		{
			"mesh":5,
			"name":"Circle.006",
			"scale":[
				0.3253353238105774,
				0.3253353238105774,
				0.3253353238105774
			],
			"translation":[
				-1,
				0,
				-1
			]
		},
		{
			"mesh":6,
			"name":"Circle.007",
			"scale":[
				0.3253353238105774,
				0.3253353238105774,
				0.3253353238105774
			],
			"translation":[
				-1,
				0,
				1
			]
		},
		{
			"mesh":7,
			"name":"Circle.008",
			"scale":[
				0.3253353238105774,
				0.3253353238105774,
				0.3253353238105774
			],
			"translation":[
				1,
				0,
				1
			]
		}
	],
	"meshes":[
		{
			"name":"Circle.001",
			"primitives":[
				{
					"attributes":{
						"POSITION":0,
						"NORMAL":1,
						"TEXCOORD_0":2
					},
					"indices":3
				}
			]
		},
		{
			"name":"Circle.002",
			"primitives":[
				{
					"attributes":{
						"POSITION":4,
						"NORMAL":5,
						"TEXCOORD_0":6
					},
					"indices":3
				}
			]
		},
		{
			"name":"Circle.003",
			"primitives":[
				{
					"attributes":{
						"POSITION":7,
						"NORMAL":8,
						"TEXCOORD_0":9
					},
					"indices":3
				}
			]
		},
		{
			"name":"Circle.004",
			"primitives":[
				{
					"attributes":{
						"POSITION":10,
						"NORMAL":11,
						"TEXCOORD_0":12
					},
					"indices":3
				}
			]
		},
		{
			"name":"Circle.005",
			"primitives":[
				{
					"attributes":{
						"POSITION":13,
						"NORMAL":14,
						"TEXCOORD_0":15
					},
					"indices":3
				}
			]
		},
		{
			"name":"Circle.006",
			"primitives":[
				{
					"attributes":{
						"POSITION":16,
						"NORMAL":17,
						"TEXCOORD_0":18
					},
					"indices":3
				}
			]
		},
		{
			"name":"Circle.007",
			"primitives":[
				{
					"attributes":{
						"POSITION":19,
						"NORMAL":20,
						"TEXCOORD_0":21
					},
					"indices":3
				}
			]
		},
		{
			"name":"Circle.008",
			"primitives":[
				{
					"attributes":{
						"POSITION":22,
						"NORMAL":23,
						"TEXCOORD_0":24
					},
					"indices":3
				}
			]
		}
	],
	"accessors":[
		{
			"bufferView":0,
			"componentType":5126,
			"count":417357,
			"max":[
				0.9935714602470398,
				0.14809803664684296,
				0.9935714602470398
			],
			"min":[
				-0.9935714602470398,
				5.049005721957656e-06,
				-0.9935714602470398
			],
			"type":"VEC3"
		},
		{
			"bufferView":1,
			"componentType":5126,
			"count":417357,
			"type":"VEC3"
		},
		{
			"bufferView":2,
			"componentType":5126,
			"count":417357,
			"type":"VEC2"
		},
		{
			"bufferView":3,
			"componentType":5125,
			"count":632832,
			"type":"SCALAR"
		},
		{
			"bufferView":4,
			"componentType":5126,
			"count":417357,
			"max":[
				0.9935714602470398,
				0.14809803664684296,
				0.9935714602470398
			],
			"min":[
				-0.9935714602470398,
				5.049005721957656e-06,
				-0.9935714602470398
			],
			"type":"VEC3"
		},
		{
			"bufferView":5,
			"componentType":5126,
			"count":417357,
			"type":"VEC3"
		},
		{
			"bufferView":6,
			"componentType":5126,
			"count":417357,
			"type":"VEC2"
		},
		{
			"bufferView":7,
			"componentType":5126,
			"count":417357,
			"max":[
				0.9935714602470398,
				0.14809803664684296,
				0.9935714602470398
			],
			"min":[
				-0.9935714602470398,
				5.049005721957656e-06,
				-0.9935714602470398
			],
			"type":"VEC3"
		},
		{
			"bufferView":8,
			"componentType":5126,
			"count":417357,
			"type":"VEC3"
		},
		{
			"bufferView":9,
			"componentType":5126,
			"count":417357,
			"type":"VEC2"
		},
		{
			"bufferView":10,
			"componentType":5126,
			"count":417357,
			"max":[
				0.9935714602470398,
				0.14809803664684296,
				0.9935714602470398
			],
			"min":[
				-0.9935714602470398,
				5.049005721957656e-06,
				-0.9935714602470398
			],
			"type":"VEC3"
		},
		{
			"bufferView":11,
			"componentType":5126,
			"count":417357,
			"type":"VEC3"
		},
		{
			"bufferView":12,
			"componentType":5126,
			"count":417357,
			"type":"VEC2"
		},
		{
			"bufferView":13,
			"componentType":5126,
			"count":417357,
			"max":[
				0.9935714602470398,
				0.14809803664684296,
				0.9935714602470398
			],
			"min":[
				-0.9935714602470398,
				5.049005721957656e-06,
				-0.9935714602470398
			],
			"type":"VEC3"
		},
		{
			"bufferView":14,
			"componentType":5126,
			"count":417357,
			"type":"VEC3"
		},
		{
			"bufferView":15,
			"componentType":5126,
			"count":417357,
			"type":"VEC2"
		},
		{
			"bufferView":16,
			"componentType":5126,
			"count":417357,
			"max":[
				0.9935714602470398,
				0.14809803664684296,
				0.9935714602470398
			],
			"min":[
				-0.9935714602470398,
				5.049005721957656e-06,
				-0.9935714602470398
			],
			"type":"VEC3"
		},
		{
			"bufferView":17,
			"componentType":5126,
			"count":417357,
			"type":"VEC3"
		},
		{
			"bufferView":18,
			"componentType":5126,
			"count":417357,
			"type":"VEC2"
		},
		{
			"bufferView":19,
			"componentType":5126,
			"count":417357,
			"max":[
				0.9935714602470398,
				0.14809803664684296,
				0.9935714602470398
			],
			"min":[
				-0.9935714602470398,
				5.049005721957656e-06,
				-0.9935714602470398
			],
			"type":"VEC3"
		},
		{
			"bufferView":20,
			"componentType":5126,
			"count":417357,
			"type":"VEC3"
		},
		{
			"bufferView":21,
			"componentType":5126,
			"count":417357,
			"type":"VEC2"
		},
		{
			"bufferView":22,
			"componentType":5126,
			"count":417357,
			"max":[
				0.9935714602470398,
				0.14809803664684296,
				0.9935714602470398
			],
			"min":[
				-0.9935714602470398,
				5.049005721957656e-06,
				-0.9935714602470398
			],
			"type":"VEC3"
		},
		{
			"bufferView":23,
			"componentType":5126,
			"count":417357,
			"type":"VEC3"
		},
		{
			"bufferView":24,
			"componentType":5126,
			"count":417357,
			"type":"VEC2"
		}
	],
	"bufferViews":[
		{
			"buffer":0,
			"byteLength":5008284,
			"byteOffset":0,
			"target":34962
		},
		{
			"buffer":0,
			"byteLength":5008284,
			"byteOffset":5008284,
			"target":34962
		},
		{
			"buffer":0,
			"byteLength":3338856,
			"byteOffset":10016568,
			"target":34962
		},
		{
			"buffer":0,
			"byteLength":2531328,
			"byteOffset":13355424,
			"target":34963
		},
		{
			"buffer":0,
			"byteLength":5008284,
			"byteOffset":15886752,
			"target":34962
		},
		{
			"buffer":0,
			"byteLength":5008284,
			"byteOffset":20895036,
			"target":34962
		},
		{
			"buffer":0,
			"byteLength":3338856,
			"byteOffset":25903320,
			"target":34962
		},
		{
			"buffer":0,
			"byteLength":5008284,
			"byteOffset":29242176,
			"target":34962
		},
		{
			"buffer":0,
			"byteLength":5008284,
			"byteOffset":34250460,
			"target":34962
		},
		{
			"buffer":0,
			"byteLength":3338856,
			"byteOffset":39258744,
			"target":34962
		},
		{
			"buffer":0,
			"byteLength":5008284,
			"byteOffset":42597600,
			"target":34962
		},
		{
			"buffer":0,
			"byteLength":5008284,
			"byteOffset":47605884,
			"target":34962
		},
		{
			"buffer":0,
			"byteLength":3338856,
			"byteOffset":52614168,
			"target":34962
		},
		{
			"buffer":0,
			"byteLength":5008284,
			"byteOffset":55953024,
			"target":34962
		},
		{
			"buffer":0,
			"byteLength":5008284,
			"byteOffset":60961308,
			"target":34962
		},
		{
			"buffer":0,
			"byteLength":3338856,
			"byteOffset":65969592,
			"target":34962
		},
		{
			"buffer":0,
			"byteLength":5008284,
			"byteOffset":69308448,
			"target":34962
		},
		{
			"buffer":0,
			"byteLength":5008284,
			"byteOffset":74316732,
			"target":34962
		},
		{
			"buffer":0,
			"byteLength":3338856,
			"byteOffset":79325016,
			"target":34962
		},
		{
			"buffer":0,
			"byteLength":5008284,
			"byteOffset":82663872,
			"target":34962
		},
		{
			"buffer":0,
			"byteLength":5008284,
			"byteOffset":87672156,
			"target":34962
		},
		{
			"buffer":0,
			"byteLength":3338856,
			"byteOffset":92680440,
			"target":34962
		},
		{
			"buffer":0,
			"byteLength":5008284,
			"byteOffset":96019296,
			"target":34962
		},
		{
			"buffer":0,
			"byteLength":5008284,
			"byteOffset":101027580,
			"target":34962
		},
		{
			"buffer":0,
			"byteLength":3338856,
			"byteOffset":106035864,
			"target":34962
		}
	],
	"buffers":[
		{
			"byteLength":109374720,
			"uri":"qon.bin"
		}
	]
}
