{
	"asset":{
		"generator":"Khronos glTF Blender I/O v4.3.47",
		"version":"2.0"
	},
	"extensionsUsed":[
		"KHR_materials_specular"
	],
	"scene":0,
	"scenes":[
		{
			"name":"Scene",
			"nodes":[
				1,
				2
			]
		}
	],
	"nodes":[
		{
			"name":"B\u00e9zierCurve.001",
			"scale":[
				10.26864242553711,
				10.26864242553711,
				10.26864242553711
			]
		},
		{
			"children":[
				0
			],
			"name":"Blue Petal Flower by geo node",
			"scale":[
				0.09738384187221527,
				0.09738384187221527,
				0.09738384187221527
			]
		},
		{
			"mesh":0,
			"name":"Plane.001"
		}
	],
	"animations":[
		{
			"channels":[
				{
					"sampler":0,
					"target":{
						"node":0,
						"path":"rotation"
					}
				}
			],
			"name":"B\u00e9zierCurve.001Action.001",
			"samplers":[
				{
					"input":4,
					"interpolation":"LINEAR",
					"output":5
				}
			]
		}
	],
	"materials":[
		{
			"alphaMode":"BLEND",
			"doubleSided":true,
			"extensions":{
				"KHR_materials_specular":{
					"specularFactor":0.36000001430511475
				}
			},
			"name":"Material.006",
			"pbrMetallicRoughness":{
				"metallicFactor":0
			}
		}
	],
	"meshes":[
		{
			"name":"Plane.002",
			"primitives":[
				{
					"attributes":{
						"POSITION":0,
						"NORMAL":1,
						"TEXCOORD_0":2
					},
					"indices":3,
					"material":0
				}
			]
		}
	],
	"accessors":[
		{
			"bufferView":0,
			"componentType":5126,
			"count":81,
			"max":[
				0.9565914869308472,
				0.35799452662467957,
				0.006154060363769531
			],
			"min":[
				-1.0434085130691528,
				-0.4044559597969055,
				-1.9938459396362305
			],
			"type":"VEC3"
		},
		{
			"bufferView":1,
			"componentType":5126,
			"count":81,
			"type":"VEC3"
		},
		{
			"bufferView":2,
			"componentType":5126,
			"count":81,
			"type":"VEC2"
		},
		{
			"bufferView":3,
			"componentType":5123,
			"count":384,
			"type":"SCALAR"
		},
		{
			"bufferView":4,
			"componentType":5126,
			"count":61,
			"max":[
				2.5
			],
			"min":[
				0
			],
			"type":"SCALAR"
		},
		{
			"bufferView":5,
			"componentType":5126,
			"count":61,
			"type":"VEC4"
		}
	],
	"bufferViews":[
		{
			"buffer":0,
			"byteLength":972,
			"byteOffset":0,
			"target":34962
		},
		{
			"buffer":0,
			"byteLength":972,
			"byteOffset":972,
			"target":34962
		},
		{
			"buffer":0,
			"byteLength":648,
			"byteOffset":1944,
			"target":34962
		},
		{
			"buffer":0,
			"byteLength":768,
			"byteOffset":2592,
			"target":34963
		},
		{
			"buffer":0,
			"byteLength":244,
			"byteOffset":3360
		},
		{
			"buffer":0,
			"byteLength":976,
			"byteOffset":3604
		}
	],
	"buffers":[
		{
			"byteLength":4580,
			"uri":"qon.bin"
		}
	]
}
