{
	"asset":{
		"generator":"Khronos glTF Blender I/O v4.3.47",
		"version":"2.0"
	},
	"extensionsUsed":[
		"KHR_lights_punctual"
	],
	"extensionsRequired":[
		"KHR_lights_punctual"
	],
	"extensions":{
		"KHR_lights_punctual":{
			"lights":[
				{
					"color":[
						1,
						1,
						1
					],
					"intensity":54351.41306588226,
					"type":"point",
					"name":"Light"
				}
			]
		}
	},
	"scene":0,
	"scenes":[
		{
			"name":"Scene",
			"nodes":[
				0,
				1,
				2,
				3,
				4,
				5
			]
		}
	],
	"nodes":[
		{
			"extensions":{
				"KHR_lights_punctual":{
					"light":0
				}
			},
			"name":"Light",
			"rotation":[
				-0.28416627645492554,
				0.7269423007965088,
				0.34203392267227173,
				0.5232754945755005
			],
			"translation":[
				4.076245307922363,
				5.903861999511719,
				-1.0054539442062378
			]
		},
		{
			"name":"Area",
			"rotation":[
				-0.0014091931516304612,
				0,
				0,
				1
			],
			"translation":[
				0,
				0.45144903659820557,
				1.6003667116165161
			]
		},
		{
			"name":"Area.001",
			"rotation":[
				0,
				0.7002819180488586,
				0,
				0.7138664126396179
			],
			"translation":[
				1.5524280071258545,
				0.41177934408187866,
				0.03065037727355957
			]
		},
		{
			"name":"Area.002",
			"rotation":[
				0,
				-0.7071068286895752,
				0,
				0.7071068286895752
			],
			"translation":[
				-1.7799733877182007,
				0.3349897265434265,
				0.03065037727355957
			]
		},
		{
			"mesh":0,
			"name":"Curve.001",
			"rotation":[
				0,
				-0.7071067690849304,
				-0.7071068286895752,
				1.461109633282831e-07
			],
			"scale":[
				6.81387996673584,
				6.813878536224365,
				6.813878536224365
			]
		},
		{
			"name":"Curve.003",
			"rotation":[
				0,
				-1,
				0,
				1.6292068494294654e-07
			],
			"translation":[
				0.08797046542167664,
				0,
				-0.04100973531603813
			]
		}
	],
	"materials":[
		{
			"doubleSided":true,
			"emissiveFactor":[
				0.06520255901221272,
				0.06906994088098317,
				0.01648041332483907
			],
			"name":"Material.001",
			"pbrMetallicRoughness":{
				"baseColorFactor":[
					0.8010704517364502,
					0.683836817741394,
					0.1620425432920456,
					1
				],
				"roughnessFactor":0.20642203092575073
			}
		}
	],
	"meshes":[
		{
			"name":"Mesh.001",
			"primitives":[
				{
					"attributes":{
						"POSITION":0,
						"NORMAL":1
					},
					"indices":2,
					"material":0
				}
			]
		}
	],
	"accessors":[
		{
			"bufferView":0,
			"componentType":5126,
			"count":6030,
			"max":[
				0.0495309978723526,
				0.005621904972940683,
				0.14375412464141846
			],
			"min":[
				-0.04944637417793274,
				-1.862645149230957e-09,
				0
			],
			"type":"VEC3"
		},
		{
			"bufferView":1,
			"componentType":5126,
			"count":6030,
			"type":"VEC3"
		},
		{
			"bufferView":2,
			"componentType":5123,
			"count":12096,
			"type":"SCALAR"
		}
	],
	"bufferViews":[
		{
			"buffer":0,
			"byteLength":72360,
			"byteOffset":0,
			"target":34962
		},
		{
			"buffer":0,
			"byteLength":72360,
			"byteOffset":72360,
			"target":34962
		},
		{
			"buffer":0,
			"byteLength":24192,
			"byteOffset":144720,
			"target":34963
		}
	],
	"buffers":[
		{
			"byteLength":168912,
			"uri":"data:application/octet-stream;base64,"
		}
	]
}
